<svg xmlns="http://www.w3.org/2000/svg" aria-hidden="true" overflow="hidden" style="position:absolute;width:0;height:0">
  <defs>
    <symbol id="icon-envelope" viewBox="0 0 28 28">
      <path d="M26 23.5v-12a8.408 8.408 0 0 1-1.078 1.031c-2.234 1.719-4.484 3.469-6.656 5.281-1.172.984-2.625 2.188-4.25 2.188h-.031c-1.625 0-3.078-1.203-4.25-2.188-2.172-1.813-4.422-3.563-6.656-5.281A8.411 8.411 0 0 1 2.001 11.5v12c0 .266.234.5.5.5h23c.266 0 .5-.234.5-.5zm0-16.422C26 6.687 26.094 6 25.5 6h-23c-.266 0-.5.234-.5.5 0 1.781.891 3.328 2.297 4.438a980.43 980.43 0 0 1 6.266 4.953c.828.672 2.328 2.109 3.422 2.109h.031c1.094 0 2.594-1.437 3.422-2.109a946.207 946.207 0 0 1 6.266-4.953c1.016-.797 2.297-2.531 2.297-3.859zm2-.578v17c0 1.375-1.125 2.5-2.5 2.5h-23A2.507 2.507 0 0 1 0 23.5v-17C0 5.125 1.125 4 2.5 4h23C26.875 4 28 5.125 28 6.5z"/>
    </symbol>
    <symbol id="icon-check" viewBox="0 0 28 28">
      <path d="M26.109 8.844c0 .391-.156.781-.438 1.062L12.233 23.344c-.281.281-.672.438-1.062.438s-.781-.156-1.062-.438l-7.781-7.781c-.281-.281-.438-.672-.438-1.062s.156-.781.438-1.062l2.125-2.125c.281-.281.672-.438 1.062-.438s.781.156 1.062.438l4.594 4.609 10.25-10.266c.281-.281.672-.438 1.062-.438s.781.156 1.062.438l2.125 2.125c.281.281.438.672.438 1.062z"/>
    </symbol>
    <symbol id="icon-close" viewBox="0 0 22 28">
      <path d="M20.281 20.656c0 .391-.156.781-.438 1.062l-2.125 2.125c-.281.281-.672.438-1.062.438s-.781-.156-1.062-.438L11 19.249l-4.594 4.594c-.281.281-.672.438-1.062.438s-.781-.156-1.062-.438l-2.125-2.125c-.281-.281-.438-.672-.438-1.062s.156-.781.438-1.062L6.751 15l-4.594-4.594c-.281-.281-.438-.672-.438-1.062s.156-.781.438-1.062l2.125-2.125c.281-.281.672-.438 1.062-.438s.781.156 1.062.438L11 10.751l4.594-4.594c.281-.281.672-.438 1.062-.438s.781.156 1.062.438l2.125 2.125c.281.281.438.672.438 1.062s-.156.781-.438 1.062L15.249 15l4.594 4.594c.281.281.438.672.438 1.062z"/>
    </symbol>
    <symbol id="icon-home" viewBox="0 0 26 28">
      <path d="M22 15.5V23c0 .547-.453 1-1 1h-6v-6h-4v6H5c-.547 0-1-.453-1-1v-7.5c0-.031.016-.063.016-.094L13 8l8.984 7.406c.016.031.016.063.016.094zm3.484-1.078-.969 1.156a.52.52 0 0 1-.328.172h-.047a.49.49 0 0 1-.328-.109L12.999 6.625 2.186 15.641a.531.531 0 0 1-.375.109.52.52 0 0 1-.328-.172l-.969-1.156a.51.51 0 0 1 .063-.703L11.811 4.36c.656-.547 1.719-.547 2.375 0l3.813 3.187V4.5c0-.281.219-.5.5-.5h3c.281 0 .5.219.5.5v6.375l3.422 2.844c.203.172.234.5.063.703z"/>
    </symbol>
    <symbol id="icon-user" viewBox="0 0 28 28">
      <path d="M23.797 20.922c-.406-2.922-1.594-5.516-4.25-5.875-1.375 1.5-3.359 2.453-5.547 2.453s-4.172-.953-5.547-2.453c-2.656.359-3.844 2.953-4.25 5.875C6.375 23.985 9.953 26 14 26s7.625-2.016 9.797-5.078zM20 10c0-3.313-2.688-6-6-6s-6 2.688-6 6 2.688 6 6 6 6-2.688 6-6zm8 4c0 7.703-6.25 14-14 14-7.734 0-14-6.281-14-14C0 6.266 6.266 0 14 0s14 6.266 14 14z"/>
    </symbol>
    <symbol id="icon-brush" viewBox="0 0 24 24">
      <path d="M20.719 4.641q.281.281.281.703t-.281.703L11.766 15 9 12.234l8.953-8.953Q18.234 3 18.656 3t.703.281zM6.984 14.016q1.219 0 2.109.891t.891 2.109q0 1.641-1.172 2.813t-2.813 1.172q-2.438 0-3.984-2.016.703 0 1.336-.539t.633-1.43q0-1.219.891-2.109t2.109-.891z"/>
    </symbol>
    <symbol id="icon-cross" viewBox="0 0 20 20">
      <path d="M14.348 14.849a1.2 1.2 0 0 1-1.697 0L10 11.819l-2.651 3.029a1.2 1.2 0 1 1-1.697-1.697l2.758-3.15-2.759-3.152a1.2 1.2 0 1 1 1.697-1.697L10 8.183l2.651-3.031a1.2 1.2 0 1 1 1.697 1.697l-2.758 3.152 2.758 3.15a1.2 1.2 0 0 1 0 1.698z"/>
    </symbol>
    <symbol id="icon-email" viewBox="0 0 20 20">
      <path d="M14.608 12.172c0 .84.239 1.175.864 1.175 1.393 0 2.28-1.775 2.28-4.727 0-4.512-3.288-6.672-7.393-6.672-4.223 0-8.064 2.832-8.064 8.184 0 5.112 3.36 7.896 8.52 7.896 1.752 0 2.928-.192 4.727-.792l.386 1.607c-1.776.577-3.674.744-5.137.744-6.768 0-10.393-3.72-10.393-9.456 0-5.784 4.201-9.72 9.985-9.72 6.024 0 9.215 3.6 9.215 8.016 0 3.744-1.175 6.6-4.871 6.6-1.681 0-2.784-.672-2.928-2.161-.432 1.656-1.584 2.161-3.145 2.161-2.088 0-3.84-1.609-3.84-4.848 0-3.264 1.537-5.28 4.297-5.28 1.464 0 2.376.576 2.782 1.488l.697-1.272h2.016v7.057h.002zm-2.951-3.168c0-1.319-.985-1.872-1.801-1.872-.888 0-1.871.719-1.871 2.832 0 1.68.744 2.616 1.871 2.616.792 0 1.801-.504 1.801-1.896v-1.68z"/>
    </symbol>
    <symbol id="icon-paper-plane" viewBox="0 0 20 20">
      <path d="M18.64 2.634.984 8.856c-.284.1-.347.345-.01.479l3.796 1.521 2.25.901 10.984-8.066c.148-.108.318.095.211.211l-7.871 8.513v.002l-.452.503.599.322 4.982 2.682c.291.156.668.027.752-.334l2.906-12.525c.079-.343-.148-.552-.491-.431zM7 17.162c0 .246.139.315.331.141.251-.229 2.85-2.561 2.85-2.561L7 13.098v4.064z"/>
    </symbol>
    <symbol id="icon-checkbox" viewBox="0 0 34 32">
      <path fill="var(--color1, #2196f3)" d="M4.267 0h25.6a4.267 4.267 0 0 1 4.267 4.267v23.467a4.267 4.267 0 0 1-4.267 4.267h-25.6A4.267 4.267 0 0 1 0 27.734V4.267A4.267 4.267 0 0 1 4.267 0z"/>
      <path fill="var(--color2, #fff)" stroke="var(--color2, #fff)" stroke-width=".427" d="m8.442 16.538-.147-.141-.147.139-2.057 1.95.162.156 7.605 7.253.147-.141 16.171-15.426-.162-.154-2.029-1.935-.147.141-13.98 13.325-5.417-5.167z"/>
    </symbol>
  </defs>
</svg>
